# xmcd
#
# Track frame offsets:
# 150
# 18090
# 33275
# 49787
# 68848
# 88550
# 109230
# 127237
# 142190
# 165570
# 189260
# 207305
#
# Disc length: 3036 seconds
#
#
# Revision: 0
# Processed by: cddbd v1.5.1PL2 Copyright (c) Steve Scherf et al.
# Submitted via: CDLP Version 5
#
DISCID=a50bda0c
DTITLE=アーティスト情報なし - アルバム情報なし (2005/11/09 21:46:59)
DYEAR=1900
DGENRE=Folk
TTITLE0=トラック 1
TTITLE1=トラック 2
TTITLE2=トラック 3
TTITLE3=トラック 4
TTITLE4=トラック 5
TTITLE5=トラック 6
TTITLE6=トラック 7
TTITLE7=トラック 8
TTITLE8=トラック 9
TTITLE9=トラック 10
TTITLE10=トラック 11
TTITLE11=トラック 12
EXTD=
EXTT0=
EXTT1=
EXTT2=
EXTT3=
EXTT4=
EXTT5=
EXTT6=
EXTT7=
EXTT8=
EXTT9=
EXTT10=
EXTT11=
PLAYORDER=
